<?xml version="1.0" standalone="no"?>
<!DOCTYPE svg PUBLIC "-//W3C//DTD SVG 20010904//EN"
 "http://www.w3.org/TR/2001/REC-SVG-20010904/DTD/svg10.dtd">
<svg version="1.0" xmlns="http://www.w3.org/2000/svg"
 width="200.000000pt" height="200.000000pt" viewBox="0 0 200.000000 200.000000"
 preserveAspectRatio="xMidYMid meet">
<metadata>
Created by potrace 1.16, written by Peter Selinger 2001-2019
</metadata>
<g transform="translate(0.000000,200.000000) scale(0.100000,-0.100000)"
fill="#000000" stroke="none">
<path d="M472 1234 c-84 -22 -92 -29 -93 -77 -1 -77 -9 -83 -54 -37 -46 47
-59 50 -52 13 6 -34 -39 -83 -77 -83 -34 0 -33 -10 9 -50 19 -18 32 -37 29
-41 -2 -4 -29 -11 -58 -14 -53 -7 -55 -9 -71 -49 -9 -22 -19 -66 -23 -96 -5
-50 -4 -54 11 -41 10 7 30 11 47 9 22 -3 34 0 40 12 5 10 25 21 44 24 22 4 37
14 41 27 4 11 16 28 27 39 21 19 21 19 50 -5 38 -32 82 -32 113 0 31 30 33 82
5 118 -25 32 -18 51 26 72 25 11 34 22 34 40 0 13 8 31 18 41 9 10 17 31 18
48 0 17 4 39 8 49 10 21 -16 22 -92 1z"/>
<path d="M580 1000 l0 -120 80 0 c67 0 83 3 100 20 25 25 26 74 3 98 -13 12
-17 29 -15 57 5 53 -14 65 -100 65 l-68 0 0 -120z"/>
<path d="M853 1108 c-23 -30 -43 -108 -43 -166 l0 -62 35 0 c32 0 35 2 35 30
0 27 3 30 30 30 27 0 30 -3 30 -30 0 -28 3 -30 36 -30 l36 0 -4 73 c-2 45 -12
90 -25 120 -22 47 -22 47 -71 47 -28 0 -54 -5 -59 -12z"/>
<path d="M1025 1101 c-9 -31 5 -52 33 -49 25 3 26 2 23 -55 -1 -32 0 -71 4
-87 6 -26 11 -30 41 -30 l34 0 0 84 0 85 28 3 c22 2 28 8 30 36 l3 32 -95 0
c-83 0 -95 -2 -101 -19z"/>
<path d="M1254 1107 c-2 -7 -3 -60 -2 -118 l3 -104 76 -3 c63 -2 80 0 100 17
22 17 24 27 24 101 0 107 -13 120 -121 120 -53 0 -76 -4 -80 -13z"/>
<path d="M1500 1000 l0 -120 85 0 85 0 0 30 c0 29 -1 30 -50 30 -37 0 -50 4
-50 14 0 10 13 16 38 18 32 3 37 6 37 28 0 22 -5 25 -37 28 -25 2 -38 8 -38
18 0 10 13 14 50 14 49 0 50 1 50 30 l0 30 -85 0 -85 0 0 -120z"/>
<path d="M1712 1043 c3 -50 11 -93 24 -118 19 -39 20 -40 73 -40 l55 0 22 55
c15 36 23 76 24 118 l0 63 -37 -3 -38 -3 -3 -50 c-3 -71 -12 -115 -21 -115
-15 0 -31 61 -31 116 l0 54 -36 0 -36 0 4 -77z"/>
</g>
</svg>
